<svg width="79" height="16" viewBox="0 0 79 16" fill="none" xmlns="http://www.w3.org/2000/svg">
<path d="M12.14 0.999999V15H10.5L2.1 4.56V15H0.1V0.999999H1.74L10.14 11.44V0.999999H12.14ZM22.6505 15.16C21.2371 15.16 19.9638 14.8533 18.8305 14.24C17.6971 13.6133 16.8038 12.7533 16.1505 11.66C15.5105 10.5667 15.1905 9.34667 15.1905 8C15.1905 6.65333 15.5105 5.43333 16.1505 4.34C16.8038 3.24667 17.6971 2.39333 18.8305 1.78C19.9638 1.15333 21.2371 0.84 22.6505 0.84C24.0505 0.84 25.3171 1.15333 26.4505 1.78C27.5838 2.39333 28.4705 3.24667 29.1105 4.34C29.7505 5.42 30.0705 6.64 30.0705 8C30.0705 9.36 29.7505 10.5867 29.1105 11.68C28.4705 12.76 27.5838 13.6133 26.4505 14.24C25.3171 14.8533 24.0505 15.16 22.6505 15.16ZM22.6505 13.38C23.6771 13.38 24.5971 13.1467 25.4105 12.68C26.2371 12.2133 26.8838 11.5733 27.3505 10.76C27.8305 9.93333 28.0705 9.01333 28.0705 8C28.0705 6.98667 27.8305 6.07333 27.3505 5.26C26.8838 4.43333 26.2371 3.78667 25.4105 3.32C24.5971 2.85333 23.6771 2.62 22.6505 2.62C21.6238 2.62 20.6905 2.85333 19.8505 3.32C19.0238 3.78667 18.3705 4.43333 17.8905 5.26C17.4238 6.07333 17.1905 6.98667 17.1905 8C17.1905 9.01333 17.4238 9.93333 17.8905 10.76C18.3705 11.5733 19.0238 12.2133 19.8505 12.68C20.6905 13.1467 21.6238 13.38 22.6505 13.38ZM46.1073 15L46.0873 4.8L41.0273 13.3H40.1073L35.0473 4.86V15H33.1273V0.999999H34.7673L40.6073 10.84L46.3673 0.999999H48.0073L48.0273 15H46.1073ZM58.5489 15.16C57.1356 15.16 55.8622 14.8533 54.7289 14.24C53.5956 13.6133 52.7022 12.7533 52.0489 11.66C51.4089 10.5667 51.0889 9.34667 51.0889 8C51.0889 6.65333 51.4089 5.43333 52.0489 4.34C52.7022 3.24667 53.5956 2.39333 54.7289 1.78C55.8622 1.15333 57.1356 0.84 58.5489 0.84C59.9489 0.84 61.2156 1.15333 62.3489 1.78C63.4822 2.39333 64.3689 3.24667 65.0089 4.34C65.6489 5.42 65.9689 6.64 65.9689 8C65.9689 9.36 65.6489 10.5867 65.0089 11.68C64.3689 12.76 63.4822 13.6133 62.3489 14.24C61.2156 14.8533 59.9489 15.16 58.5489 15.16ZM58.5489 13.38C59.5756 13.38 60.4956 13.1467 61.3089 12.68C62.1356 12.2133 62.7822 11.5733 63.2489 10.76C63.7289 9.93333 63.9689 9.01333 63.9689 8C63.9689 6.98667 63.7289 6.07333 63.2489 5.26C62.7822 4.43333 62.1356 3.78667 61.3089 3.32C60.4956 2.85333 59.5756 2.62 58.5489 2.62C57.5222 2.62 56.5889 2.85333 55.7489 3.32C54.9222 3.78667 54.2689 4.43333 53.7889 5.26C53.3222 6.07333 53.0889 6.98667 53.0889 8C53.0889 9.01333 53.3222 9.93333 53.7889 10.76C54.2689 11.5733 54.9222 12.2133 55.7489 12.68C56.5889 13.1467 57.5222 13.38 58.5489 13.38ZM73.1058 15.16C72.0524 15.16 71.0324 15 70.0458 14.68C69.0724 14.3467 68.3058 13.92 67.7458 13.4L68.4858 11.84C69.0191 12.32 69.6991 12.7133 70.5258 13.02C71.3658 13.3133 72.2258 13.46 73.1058 13.46C74.2658 13.46 75.1324 13.2667 75.7058 12.88C76.2791 12.48 76.5658 11.9533 76.5658 11.3C76.5658 10.82 76.4058 10.4333 76.0858 10.14C75.7791 9.83333 75.3924 9.6 74.9258 9.44C74.4724 9.28 73.8258 9.1 72.9858 8.9C71.9324 8.64667 71.0791 8.39333 70.4258 8.14C69.7858 7.88667 69.2324 7.5 68.7658 6.98C68.3124 6.44667 68.0858 5.73333 68.0858 4.84C68.0858 4.09333 68.2791 3.42 68.6658 2.82C69.0658 2.22 69.6658 1.74 70.4658 1.38C71.2658 1.02 72.2591 0.84 73.4458 0.84C74.2724 0.84 75.0858 0.946666 75.8858 1.16C76.6858 1.37333 77.3724 1.68 77.9458 2.08L77.2858 3.68C76.6991 3.30667 76.0724 3.02667 75.4058 2.84C74.7391 2.64 74.0858 2.54 73.4458 2.54C72.3124 2.54 71.4591 2.74667 70.8858 3.16C70.3258 3.57333 70.0458 4.10667 70.0458 4.76C70.0458 5.24 70.2058 5.63333 70.5258 5.94C70.8458 6.23333 71.2391 6.46667 71.7058 6.64C72.1858 6.8 72.8324 6.97333 73.6458 7.16C74.6991 7.41333 75.5458 7.66667 76.1858 7.92C76.8258 8.17333 77.3724 8.56 77.8258 9.08C78.2924 9.6 78.5258 10.3 78.5258 11.18C78.5258 11.9133 78.3258 12.5867 77.9258 13.2C77.5258 13.8 76.9191 14.28 76.1058 14.64C75.2924 14.9867 74.2924 15.16 73.1058 15.16Z" fill="black"/>
</svg>
